<svg version="1.1" id="Layer_1" xmlns="http://www.w3.org/2000/svg" xmlns:xlink="http://www.w3.org/1999/xlink" x="0px" y="0px" viewBox="0 0 105 84" style="enable-background:new 0 0 105 84;" xml:space="preserve">
<style type="text/css">
	.st0{fill:#2F52FF;stroke:#A8C0FF;stroke-miterlimit:10;}
	.st1{opacity:0.51;fill:none;stroke:#A8C0FF;stroke-miterlimit:10;}
	.st2{opacity:0.2;fill:none;stroke:#A8C0FF;stroke-miterlimit:10;}
</style>

<rect x="-46.5" y="-32.5" class="st0" width="230.5" height="149"/>
<g>
	<g>
		<line class="st1" x1="528.27" y1="-104.78" x2="-461.42" y2="-104.79"/>
		<line class="st2" x1="528.27" y1="-189.01" x2="-461.42" y2="-189.01"/>
		<line class="st2" x1="528.27" y1="-167.96" x2="-461.42" y2="-167.96"/>
		<line class="st2" x1="528.27" y1="-146.9" x2="-461.42" y2="-146.9"/>
		<line class="st2" x1="528.27" y1="-125.84" x2="-461.42" y2="-125.84"/>
	</g>
	<g>
		<line class="st1" x1="528.27" y1="0.5" x2="-461.42" y2="0.5"/>
		<line class="st2" x1="528.27" y1="-83.73" x2="-461.42" y2="-83.73"/>
		<line class="st2" x1="528.27" y1="-62.67" x2="-461.42" y2="-62.67"/>
		<line class="st2" x1="528.27" y1="-41.61" x2="-461.42" y2="-41.61"/>
		<line class="st2" x1="528.27" y1="-20.56" x2="-461.42" y2="-20.56"/>
	</g>
	<g>
		<line class="st1" x1="528.27" y1="105.79" x2="-461.42" y2="105.79"/>
		<line class="st2" x1="528.27" y1="21.56" x2="-461.42" y2="21.56"/>
		<line class="st2" x1="528.27" y1="42.62" x2="-461.42" y2="42.61"/>
		<line class="st2" x1="528.27" y1="63.67" x2="-461.42" y2="63.67"/>
		<line class="st2" x1="528.27" y1="84.73" x2="-461.42" y2="84.73"/>
	</g>
	<g>
		<line class="st2" x1="528.27" y1="126.85" x2="-461.42" y2="126.84"/>
		<line class="st2" x1="528.27" y1="147.9" x2="-461.42" y2="147.9"/>
		<line class="st2" x1="528.27" y1="168.96" x2="-461.42" y2="168.96"/>
		<line class="st2" x1="528.27" y1="190.02" x2="-461.42" y2="190.02"/>
	</g>
	<g>
		<line class="st1" x1="528.27" y1="211.07" x2="528.27" y2="-210.07"/>
		<line class="st1" x1="422.98" y1="211.07" x2="422.98" y2="-210.07"/>
		<line class="st2" x1="507.21" y1="211.07" x2="507.21" y2="-210.07"/>
		<line class="st2" x1="486.15" y1="211.07" x2="486.15" y2="-210.07"/>
		<line class="st2" x1="465.09" y1="211.07" x2="465.1" y2="-210.07"/>
		<line class="st2" x1="444.04" y1="211.07" x2="444.04" y2="-210.07"/>
	</g>
	<g>
		<line class="st1" x1="317.69" y1="211.07" x2="317.69" y2="-210.07"/>
		<line class="st2" x1="401.92" y1="211.07" x2="401.92" y2="-210.07"/>
		<line class="st2" x1="380.87" y1="211.07" x2="380.87" y2="-210.07"/>
		<line class="st2" x1="359.81" y1="211.07" x2="359.81" y2="-210.07"/>
		<line class="st2" x1="338.75" y1="211.07" x2="338.75" y2="-210.07"/>
	</g>
	<g>
		<line class="st1" x1="212.41" y1="211.07" x2="212.41" y2="-210.07"/>
		<line class="st2" x1="296.64" y1="211.07" x2="296.64" y2="-210.07"/>
		<line class="st2" x1="275.58" y1="211.07" x2="275.58" y2="-210.07"/>
		<line class="st2" x1="254.52" y1="211.07" x2="254.52" y2="-210.07"/>
		<line class="st2" x1="233.46" y1="211.07" x2="233.47" y2="-210.07"/>
	</g>
	<g>
		<line class="st1" x1="107.12" y1="211.07" x2="107.12" y2="-210.07"/>
		<line class="st2" x1="191.35" y1="211.07" x2="191.35" y2="-210.07"/>
		<line class="st2" x1="170.29" y1="211.07" x2="170.29" y2="-210.07"/>
		<line class="st2" x1="149.24" y1="211.07" x2="149.24" y2="-210.07"/>
		<line class="st2" x1="128.18" y1="211.07" x2="128.18" y2="-210.07"/>
	</g>
	<g>
		<line class="st1" x1="0.5" y1="211.07" x2="0.5" y2="-210.07"/>
		<line class="st2" x1="84.73" y1="211.07" x2="84.73" y2="-210.07"/>
		<line class="st2" x1="63.67" y1="211.07" x2="63.67" y2="-210.07"/>
		<line class="st2" x1="42.61" y1="211.07" x2="42.62" y2="-210.07"/>
		<line class="st2" x1="21.56" y1="211.07" x2="21.56" y2="-210.07"/>
	</g>
	<g>
		<line class="st1" x1="-104.79" y1="211.07" x2="-104.79" y2="-210.07"/>
		<line class="st2" x1="-20.56" y1="211.07" x2="-20.56" y2="-210.07"/>
		<line class="st2" x1="-41.61" y1="211.07" x2="-41.61" y2="-210.07"/>
		<line class="st2" x1="-62.67" y1="211.07" x2="-62.67" y2="-210.07"/>
		<line class="st2" x1="-83.73" y1="211.07" x2="-83.73" y2="-210.07"/>
	</g>
	<g>
		<line class="st1" x1="-210.07" y1="211.07" x2="-210.07" y2="-210.07"/>
		<line class="st2" x1="-125.84" y1="211.07" x2="-125.84" y2="-210.07"/>
		<line class="st2" x1="-146.9" y1="211.07" x2="-146.9" y2="-210.07"/>
		<line class="st2" x1="-167.96" y1="211.07" x2="-167.96" y2="-210.07"/>
		<line class="st2" x1="-189.02" y1="211.07" x2="-189.01" y2="-210.07"/>
	</g>
	<g>
		<line class="st1" x1="-315.36" y1="211.07" x2="-315.36" y2="-210.07"/>
		<line class="st2" x1="-231.13" y1="211.07" x2="-231.13" y2="-210.07"/>
		<line class="st2" x1="-252.19" y1="211.07" x2="-252.19" y2="-210.07"/>
		<line class="st2" x1="-273.24" y1="211.07" x2="-273.24" y2="-210.07"/>
		<line class="st2" x1="-294.3" y1="211.07" x2="-294.3" y2="-210.07"/>
	</g>
</g>
</svg>
